<svg width="99" height="84" viewBox="0 0 99 84" fill="none" xmlns="http://www.w3.org/2000/svg">
<g id="Logo icon">
<path id="Vector" d="M65.34 69.47L79.69 83.82V69.47" fill="#094566"/>
<g id="Group">
<path id="Vector_2" d="M82.09 0H16C7.16344 0 0 7.16344 0 16V54.74C0 63.5766 7.16344 70.74 16 70.74H82.09C90.9266 70.74 98.09 63.5766 98.09 54.74V16C98.09 7.16344 90.9266 0 82.09 0Z" fill="#095896"/>
<g id="Group_2">
<path id="Vector_3" d="M24.76 57.84C22.36 57.84 20.55 57.24 19.34 56.04C18.12 54.84 17.52 53.07 17.52 50.74V39.7C17.52 38.87 17.33 38.26 16.94 37.88C16.55 37.5 16.03 37.3 15.36 37.3H13.68V33.46H15.36C16.03 33.46 16.56 33.27 16.94 32.88C17.32 32.49 17.52 31.89 17.52 31.06V20.02C17.52 17.65 18.13 15.88 19.34 14.69C20.56 13.51 22.36 12.91 24.76 12.91H26.87V16.7H25.67C24.49 16.7 23.6 17.02 23.01 17.66C22.42 18.3 22.12 19.23 22.12 20.44V30.95C22.12 32.07 21.98 32.94 21.69 33.57C21.4 34.2 20.98 34.66 20.42 34.96C19.86 35.26 19.13 35.5 18.24 35.66V35.08C19.14 35.21 19.86 35.43 20.42 35.75C20.98 36.07 21.4 36.54 21.69 37.17C21.98 37.8 22.12 38.67 22.12 39.79V50.3C22.12 51.52 22.42 52.44 23.01 53.08C23.6 53.72 24.49 54.04 25.67 54.04H26.87V57.83H24.76V57.84Z" fill="white"/>
<path id="Vector_4" d="M73.37 57.84H71.26V54.05H72.41C73.66 54.05 74.58 53.73 75.17 53.09C75.76 52.45 76.06 51.52 76.06 50.31V39.8C76.06 38.68 76.2 37.81 76.47 37.18C76.74 36.56 77.17 36.08 77.74 35.76C78.32 35.44 79.04 35.22 79.9 35.09V35.67C79.04 35.51 78.32 35.28 77.74 34.97C77.16 34.67 76.74 34.2 76.47 33.58C76.2 32.96 76.06 32.08 76.06 30.96V20.45C76.06 19.23 75.76 18.31 75.17 17.67C74.58 17.03 73.66 16.71 72.41 16.71H71.26V12.92H73.37C75.77 12.92 77.59 13.51 78.82 14.7C80.05 15.88 80.67 17.66 80.67 20.03V31.07C80.67 31.9 80.86 32.51 81.25 32.89C81.64 33.27 82.15 33.47 82.79 33.47H84.42V37.31H82.79C82.15 37.31 81.64 37.5 81.25 37.89C80.86 38.28 80.67 38.88 80.67 39.71V50.75C80.67 53.08 80.05 54.85 78.82 56.05C77.59 57.25 75.77 57.85 73.37 57.85V57.84Z" fill="white"/>
</g>
<g id="Group_3">
<path id="Vector_5" d="M39.52 40.15C42.1599 40.15 44.3 38.0099 44.3 35.37C44.3 32.7301 42.1599 30.59 39.52 30.59C36.8801 30.59 34.74 32.7301 34.74 35.37C34.74 38.0099 36.8801 40.15 39.52 40.15Z" fill="white"/>
<path id="Vector_6" d="M58.56 40.15C61.1999 40.15 63.34 38.0099 63.34 35.37C63.34 32.7301 61.1999 30.59 58.56 30.59C55.92 30.59 53.78 32.7301 53.78 35.37C53.78 38.0099 55.92 40.15 58.56 40.15Z" fill="white"/>
</g>
</g>
</g>
</svg>
